<?xml version="1.0" encoding="UTF-8"?>
<!-- Generator: Adobe Illustrator 21.0.2, SVG Export Plug-In . SVG Version: 6.00 Build 0)  -->
<svg width="512" height="132.27" version="1.1" viewBox="0 0 512 132.27" xml:space="preserve" xmlns="http://www.w3.org/2000/svg" xmlns:cc="http://creativecommons.org/ns#" xmlns:dc="http://purl.org/dc/elements/1.1/" xmlns:rdf="http://www.w3.org/1999/02/22-rdf-syntax-ns#"><metadata><rdf:RDF><cc:Work rdf:about=""><dc:format>image/svg+xml</dc:format><dc:type rdf:resource="http://purl.org/dc/dcmitype/StillImage"/><dc:title/></cc:Work></rdf:RDF></metadata>
<style type="text/css">
	.st0{fill:#C19F78;}
	.st1{fill:#006185;}
	.st2{fill:#00789A;}
</style>
<g transform="translate(.0035982 -190.14)">
	<g fill="#c19f78">
		<path class="st0" d="m200.3 263.4c0 4-1.8 7.8-4.8 10.6s-6.4 4.2-10.5 4.2h-8.6c-3.6 0-5.4-1.7-5.7-5.3-0.4-4.4-1.1-22.6-1.1-38.9 0-15.7 0.7-17.9 1.1-22.1 0.3-3.6 2.5-5.3 6.7-5.3h7.7c4.1 0 7.6 1.4 10.5 4.2 3 2.9 4.6 4 4.4 10.3v6.9c0 1.5-0.5 3.6-1.6 6.1s-1.7 3.9-1.7 4.2c0 0.4 0.6 0.6 1.7 3s2 7.6 2 9.6v12.5zm-15.2-29.4c1.8 0 3.4-0.5 4.5-1.6 1.2-1.1 1.8-2.6 1.8-4.4v-5.6c0-1.7-0.6-4.4-1.8-5.6-1.3-1.3-2.9-1.9-4.6-1.9h-3.3c-1.5 0-2.5 0.5-2.9 1.5-0.3 0.7-0.5 2.3-0.5 4.5 0 5.7 0 8.8 0.1 9.2 0.3 2.7 1.4 4 3.4 4h3.3zm-0.1 36.2c1.7 0 3.3-0.6 4.6-1.9 1.2-1.2 1.8-2.7 1.8-4.4v-15c0-1.7-0.6-3.2-1.8-4.4-1.3-1.3-2.9-1.9-4.6-1.9h-3.7c-1.4 0.1-2.4 1-2.7 2.8-0.2 0.9-0.3 3-0.3 6.2 0 10.3 0.5 16 1.6 17.1 0.3 1.1 1 1.6 2.3 1.6h2.8z"/>
		<path class="st0" d="m214.2 243.2c0 18.4 0.5 28.1-0.9 31.7-0.3 1.3-2.3 3.2-3.5 3.2-1.9 0-3-0.9-3.1-2.9-0.5-4.1-0.7-15.4-0.7-33.7 0-14.8 0.1-23.6 0.3-26.4 0.5-5.7 0.7-8.6 2.7-8.6 1.9 0 4.2 2.3 4.5 4.2 0.5 6.7 0.7 16.7 0.7 32.5z"/>
		<path class="st0" d="m242.9 278.2c-0.5-0.1-0.9-0.4-1-0.7l-0.3-1.6-2.4 2.3c-1.6 0.7-3 1-4.1 1-4.1 0-7.6-1.4-10.4-4.4-3-2.9-4.4-6.3-4.4-10.5l0.5-22.7c0-9-0.5-12.6-0.4-13 0.3-3.6 1.7-5.4 4.1-5.4s4.2 1.9 4.5 5.9c0.1 0.5 0.1 5.3 0.1 14.6v20.6c0 1.8 0.6 3.4 1.9 4.6s1.5 1.8 3.3 1.8 3.4-0.6 4.7-1.8 1.9-2.8 1.9-4.6v-28.6c0-4.9 0.1-8 0.4-9.2 0.5-2.3 2.6-3.4 4.6-3.4 2.1 0 3.4 1.2 3.7 3.8 0.3 3.3-0.3 13.8-0.3 27.1l0.7 16.4c-0.3 5.1-1.6 7.8-3.8 7.9h-3.3z"/>
		<path class="st0" d="m284.2 265.8c-0.3 4.5-1.4 6.1-4.2 9-3 3-6.6 4.4-10.8 4.4-4 0-7.5-1.4-10.4-4.4-3-3-3.7-10.5-3.7-14.6l-0.5-17.8c0-4.1 1.2-11.8 4.2-14.7 3-3 6.4-4.4 10.4-4.4 4.2 0 7.8 1.4 10.8 4.4 2.8 2.9 4.2 6.3 4.2 10.5v7.9c-0.1 2.1-1.2 3.5-3.5 4.1-1.2 0.3-3.6 0.5-7.2 0.5-3.5 0-5.9 0.2-7.3 0.6-2.3 0.7-3.4 2.3-3.5 4.6v8.4c0 1.8 0.6 3.4 1.9 4.7s2.8 1.9 4.5 1.9c1.9 0 3.5-0.6 4.8-1.9 1.3-1.2 1.9-2.4 1.9-3.6v-1.1c0-1.1 1.6-2 2.8-2.1l2.9-0.1c1.8 0 2.5 1.6 2.5 2.2v1.5zm-8.2-27.7c0-1.8-0.8-3.3-2.1-4.6s-3.1-2-5.1-2c-1.7 0-2.2 0.1-3.5 1.5-1.3 1.3-2.5 3.3-2.5 5.2v2c0 1.2 0.7 1.9 2 2.1h9.3c1.2-0.2 1.8-0.3 1.8-2.1v-2.1z"/>
		<path class="st0" d="m319.5 264.2c0 4.2-1.4 7.7-4.4 10.5-3 3-6.5 4.4-10.5 4.4-0.8 0-1.6 0.1-3.3-0.5-2.6-0.9-3.9-3.3-3.9-3.3 0.1 0 1.1 13.9 0.4 25.6-0.3 2.4-1.7 3.6-4.1 3.6-2.1 0-3.4-1.2-3.7-3.8-0.3-6.6-0.5-23.8-0.5-40.3 0-16.1 0.2-27.2 0.5-33.7 0.3-2.6 1.5-3.8 3.7-3.8h3.1c0.6 0.1 1 0.4 1.1 0.8 0.1 0.3 0.3 1.7 0.4 1.7s0.9-1.4 2.5-1.8c1.4-0.4 2.7-0.6 3.8-0.6 4.1 0 7.6 1.4 10.5 4.4 3 2.9 4.4 6.3 4.4 10.5zm-21.6-0.7c0 1.9 0.6 3.5 1.9 4.7 1.3 1.3 2.9 1.9 4.7 1.9s3.4-0.6 4.6-1.9c1.3-1.3 1.9-6.6 1.9-12.7v-13.8c0-1.8-0.6-7.1-1.9-8.4s-2.9-1.9-4.6-1.9c-1.8 0-3.4 0.6-4.7 1.9s-1.9 10.4-1.9 17z"/>
		<path class="st0" d="m330.7 217.4c-1.5 0-2.9-0.5-4-1.6-1.1-1-1.6-2.3-1.6-3.8 0-1.4 0.5-2.7 1.6-3.8 1.1-1 2.5-1.5 4-1.5 1.4 0 2.3 0.2 3.5 1.3 1.1 1.1 1.3 2.7 1.3 4.1s-0.4 2.9-1.6 4c-1.1 1.1-1.8 1.3-3.2 1.3zm-0.6 60.8c-2-0.1-3.2-1.5-3.5-4.2-0.2-2.9-0.3-10.6-0.3-23.4 0-14.5 0.7-23 2.1-25.5 0.3-1.3 1.3-2 3-2 1.9 0.3 3.1 3.3 3.4 8.8v18.7c0 13.4-0.2 21.5-0.5 24.3-0.3 2.3-1.5 3.4-3.7 3.4h-0.5z"/>
		<path class="st0" d="m350.5 275.1c-0.3 1.9-2.6 3.1-4.6 3.1s-2.1-3-2.6-8.7c-0.2-2.8-0.3-11.6-0.3-26.4 0-18.3 0.4-27.8 0.9-31.9 0.1-1.9 0.9-4.7 2.8-4.7 1.2 0 2 0.6 2.4 1.9 1.3 3.6 2 14.5 2 33 0.2 15.8 0 27.1-0.6 33.7z"/>
		<path class="st0" d="m365.5 275.1c-0.3 1.9-1.4 3-3.4 3s-3.3-2.9-3.8-8.6c-0.2-2.8-0.3-11.6-0.3-26.4 0-18.3 0.2-29.6 0.7-33.7 0.1-1.9 1.1-2.9 3.1-2.9 1.2 0 2.4 1.6 2.7 3 1.3 3.6 1.7 1.2 1.7 19.6 0.1 15.8-0.1 39.4-0.7 46z"/>
		<path class="st0" d="m400.5 235.5c0.4 2.8 0.2 4.9 0.3 6.3l0.7 11.8c0 4.1 0.4 9.1 0.3 10.2-0.1 1.5-0.4 4.2-0.8 5.3-0.8 2-2.3 5.1-4.5 6.9-2.8 2.1-5.8 3.2-9.1 3.2-3.9 0-6.3-0.5-9.2-3.5s-5.3-11.1-5.3-15.2v-13.8c0-4.1 1.4-16.2 4.3-19.2s5.1-4.4 9-4.4c3 0 5.8 0.8 8.3 2.6 2.5 1.7 4.2 3.9 5.2 6.7zm-19.4 26.2c0 1.8 0.6 5.8 1.9 7.2 1.3 1.3 2.7 1.9 4.4 1.9 4 0 5.6-2.2 5.9-6.3l-0.6-22.8c0-6-0.9-10.4-6.5-10.4-1.7 0-1.9 0.6-3.2 1.9s-1.9 6.1-1.9 7.9z"/>
		<path class="st0" d="m436.4 252c0 2.4-0.5 4.8 1 9.7 1.5 5.4 4.2 8.2 5.5 8.2s1.6-2.7 3.2-7.9c1.4-4.8 2.1-8.5 2.1-11.3v-14.8c0-5.4 0.1-7.4 0.3-8.3 0.5-2.3 0.5-4.6 2.7-4.6s3.8 2.6 4.2 5.3c0.1 0.8 0.2 4.1 0.2 9.9l0.1 11.2c0 4.6-1.1 8.6-2.7 14.5-2.7 10.1-4.4 15.3-10.1 15.3-2.5 0-4.8-1.1-7.1-3.5-2.4-2.3-3.6-3.4-3.8-3.4s-1.3 1.1-3.5 3.4c-2.1 2.4-4.5 3.5-7.2 3.5-5.2 0-8-4.5-10.7-13.6-1.9-5.9-2.9-10.9-2.9-14.7v-14.8c0-5.6 0.1-8.8 0.2-9.5 0.4-2.3 1.7-3.4 3.9-3.4s3.5 2.6 3.9 5.2c0.1 0.9 0.2 3 0.2 8.7v13.9c0 2.8 0.7 6.4 2 11.1 1.5 5.3 3.2 8 4.7 8 1.3 0 2.7-2.6 4.2-7.8 1.4-4.8 0.9-11.1 0.9-13.8l0.4-10.2c0-5.4-0.3-7.1-0.1-8.1 0.5-2.1 1.8-3.3 4-3.3 1.9 0 3.2 2.1 3.7 3.8 0.3 0.9 0.5 8.1 0.5 11.5v9.8z"/>
	</g>
	<g fill="#006185">
		<path class="st1" d="m312.1 286.2h8.9v1.5h-7.3v6.4h6.2v1.5h-6.2v7.6h-1.7v-17z"/>
		<path class="st1" d="m323.6 286.2h1.7v17h-1.7z"/>
		<path class="st1" d="m329.5 286.2h1.6l8.7 12.2c0.6 0.8 1.4 2.3 1.4 2.3s-0.1-1.4-0.1-2.3v-12.2h1.7v17h-1.6l-8.7-12.2c-0.6-0.8-1.4-2.3-1.4-2.3s0.1 1.4 0.1 2.3v12.2h-1.7z"/>
		<path class="st1" d="m347.1 286.2h5.5c5.1 0 8.5 3.1 8.5 8.5s-3.4 8.5-8.5 8.5h-5.5zm5.3 15.5c4.2 0 7-2.5 7-7s-2.8-7-7-7h-3.6v14z"/>
		<path class="st1" d="m374.3 295.9-5.7-9.7h1.9l3.6 6.2c0.5 0.9 1 2 1 2s0.5-1.1 1-2l3.6-6.2h1.9l-5.7 9.7v7.3h-1.7v-7.3z"/>
		<path class="st1" d="m390.4 285.9c4.8 0 8.6 3.8 8.6 8.7 0 5-3.8 8.9-8.6 8.9s-8.6-3.9-8.6-8.9c0-4.9 3.8-8.7 8.6-8.7zm0 16c3.8 0 6.9-3.2 6.9-7.3s-3.1-7.1-6.9-7.1-6.9 3.1-6.9 7.1c0 4.2 3.1 7.3 6.9 7.3z"/>
		<path class="st1" d="m402.1 286.2h1.7v11c0 2.9 1.9 4.7 4.8 4.7s4.8-1.8 4.8-4.7v-11h1.7v11.1c0 3.8-2.6 6.2-6.5 6.2s-6.5-2.4-6.5-6.2z"/>
		<path class="st1" d="m419.2 286.2h5c1.7 0 2.5 0.2 3.2 0.5 1.6 0.7 2.6 2.3 2.6 4.4 0 2.3-1.3 4.1-3.2 4.6 0 0 0.2 0.2 0.4 0.7l3.7 6.8h-1.9l-3.8-7.2h-4.3v7.2h-1.7zm5.7 8.4c2.1 0 3.4-1.3 3.4-3.5 0-1.4-0.6-2.4-1.5-3-0.5-0.3-1.1-0.4-2.4-0.4h-3.4v6.8h3.9z"/>
		<path class="st1" d="m440.1 286.2h5.9c3 0 5.2 2 5.2 5.1 0 3.2-2.2 5.2-5.2 5.2h-4.2v6.7h-1.7zm5.7 8.8c2.3 0 3.7-1.4 3.7-3.7s-1.5-3.6-3.7-3.6h-4v7.3z"/>
		<path class="st1" d="m453.8 286.2h1.7v15.5h7.9v1.5h-9.5v-17z"/>
		<path class="st1" d="m475.1 297.8h-6.8l-1.9 5.4h-1.8l6.2-17h1.8l6.2 17h-1.8zm-3.4-9.8s-0.4 1.4-0.7 2.2l-2.3 6.2h5.8l-2.2-6.2c-0.2-0.8-0.5-2.2-0.6-2.2z"/>
		<path class="st1" d="m487.9 285.9c4.1 0 6.1 2.2 6.1 2.2l-0.9 1.2s-2-1.9-5.2-1.9c-4 0-6.8 3.1-6.8 7.1 0 4.1 2.9 7.4 6.9 7.4 3.4 0 5.5-2.3 5.5-2.3l1 1.2s-2.3 2.6-6.5 2.6c-5 0-8.6-3.9-8.6-8.9 0-4.8 3.7-8.6 8.5-8.6z"/>
		<path class="st1" d="m497.2 286.2h9.6v1.5h-7.9v6.2h6.5v1.5h-6.5v6.3h8.3v1.5h-10z"/>
		<path class="st1" d="m510.1 301.3h1.9v1.9h-1.9z"/>
	</g>
	<path class="st2" d="m157.3 285.9c-2.1-23-5.7-20.5-7.5-30-0.9-4.7 2.2-19.7-2.5-34.6-0.7-2.3 6.4-7.3 3.6-15.9-1.8-5.5 3.7-11.3 3.5-13.3-0.1-0.5-0.4-1.4-1.1-1.7-0.8-0.3-1.2-0.4-2.8 0-1.4 0.4-12.1 5.3-15.3 9.3 0 0-14.6-1.6-20.6 5.2 0 0-13.2-0.4-20.3 3.4-6.5-2.3-10.4 2.9-10.4 2.9 0 9.1 0.6 22.9 0.6 22.9 0.7 3.3 2.7 7 8 7.6 2.4 0.3 6.1 0.4 9.6 3.5s5.6 4.4 6.6 4.6 5 2.5 7.4 2.3 2.9 1.4 2.6 2.2c-0.3 0.7-2.9 4.6-10.1 2.4-4.6-1.4-6.7-2.2-7.5 0-0.9 2.2-1.4 2.4 2.4 7.8s2.6 4.3 6.3 9.9c2.3 3.6 5.9 9.3 2.6 9.6-1.8 0.2-5.7-3.5-9.2-9.1-3.6-5.6-5.6-8.8-6.6-7.8s1 8.4 3.5 14.2 7 10.2 3.2 11.8c-3.1 1.4-9.7-11-10.2-12.7-0.6-1.8-2.7-9.8-3.9-9.7-1.1 0.1-1.6 7.3-0.5 11.4 1 4.1 3.3 10 0.4 10.2-2.6 0.2-4.3-2.7-5.4-7.7-0.4-1.6-1.2-4.7-1.5-6.6-0.8-6.6-0.5-8.7-1.2-8.1-1.4 1.2-2.9 6.1-3.1 8.9-0.3 2.8-0.2 9.3-2.8 7.5-2.1-1.5-2.2-9.5-1.2-14s1-10.4 0.9-11.6c-0.1-1.3-0.8-2.1-1.1-5.5-0.2-1.6-0.3-5.2-0.3-5.2s-7.2-16.8-9.6-30.9c-1-4.5-6.5-8.5-15.2-5.6 0 0-2.7-3.7-9.5-1.7 0 0-12.2-7.2-21.8 0.1 0 0-16.9-6.9-17.3-2.8-0.2 2.5 8 8.5 9 13.5 0 0-0.1 10 4.3 13.7 0 0-2.1 1.9 2.1 11.1 0 0-4.1 18.3 3.5 33 0 0-2.2 8 1.8 12.6 0 0-4.5 9.4 0 17.1 2 3.5-3.2 9.1-3 11.1 0 0.4 0.2 0.7 0.6 0.9 0.3 0.2 0.7 0.3 1.2 0.3 2.4 0.2 15.1-7.5 17.8-7.5 16.2 0.1 17.9-5.9 17.9-5.9 22.1 4.4 42.3-9 42.3-9 12.6 4.3 29.7 0.4 29.7 0.4s12.4 5.7 22.7 2.3c6.7-1.7 16.1 2.9 17.5 1.1 1.2-2.1-10.1-17.9-10.1-17.9zm-138.3-57.4c-1.4 0-2.6-1.6-2.7-3.5 0-1.9 1.1-3.4 2.5-3.4s2.6 1.6 2.7 3.5-1.1 3.4-2.5 3.4zm3.2 23.5c-0.6-1.7-0.2-3.8 0.8-4.9s2.2-0.5 2.8 1.2 0.2 3.8-0.8 4.9c-1 1-2.2 0.5-2.8-1.2zm2.7 23.5c-0.3-1.9 0.3-3.7 1.4-4.1s2.3 0.7 2.7 2.6c0.3 1.9-0.3 3.7-1.4 4.1-1.2 0.4-2.3-0.7-2.7-2.6zm4.9 27.6c-1.3 0-2.2-1.5-2.1-3.3s1.2-3.2 2.5-3.2 2.2 1.5 2.1 3.3c-0.2 1.8-1.3 3.2-2.5 3.2z" fill="#00789a"/>
</g>
</svg>
